<mxfile host="app.diagrams.net" modified="2023-09-18T08:04:12.207Z" agent="Mozilla/5.0 (X11; Linux x86_64) AppleWebKit/537.36 (KHTML, like Gecko) Chrome/114.0.0.0 YaBrowser/23.7.5.685 (beta) Yowser/2.5 Safari/537.36" etag="1oDkLntQUyKeoWRbzHSn" version="21.7.4" type="device">
  <diagram id="R2lEEEUBdFMjLlhIrx00" name="Page-1">
    <mxGraphModel dx="2026" dy="1167" grid="1" gridSize="10" guides="1" tooltips="1" connect="1" arrows="1" fold="1" page="1" pageScale="1" pageWidth="850" pageHeight="1100" math="0" shadow="0" extFonts="Permanent Marker^https://fonts.googleapis.com/css?family=Permanent+Marker">
      <root>
        <mxCell id="0" />
        <mxCell id="1" parent="0" />
        <mxCell id="NZUyc3dxwzERvjgSjI8_-1" value="TAggregator" style="ellipse;whiteSpace=wrap;html=1;" vertex="1" parent="1">
          <mxGeometry x="335" y="30" width="180" height="110" as="geometry" />
        </mxCell>
        <mxCell id="NZUyc3dxwzERvjgSjI8_-2" value="" style="endArrow=none;dashed=1;html=1;rounded=0;" edge="1" parent="1" source="NZUyc3dxwzERvjgSjI8_-3" target="NZUyc3dxwzERvjgSjI8_-1">
          <mxGeometry width="50" height="50" relative="1" as="geometry">
            <mxPoint x="280" y="200" as="sourcePoint" />
            <mxPoint x="280" y="150" as="targetPoint" />
          </mxGeometry>
        </mxCell>
        <mxCell id="NZUyc3dxwzERvjgSjI8_-3" value="IMetricPtr" style="rounded=0;whiteSpace=wrap;html=1;" vertex="1" parent="1">
          <mxGeometry x="160" y="200" width="120" height="60" as="geometry" />
        </mxCell>
        <mxCell id="NZUyc3dxwzERvjgSjI8_-4" value="IMetricPtr" style="rounded=0;whiteSpace=wrap;html=1;" vertex="1" parent="1">
          <mxGeometry x="280" y="280" width="120" height="60" as="geometry" />
        </mxCell>
        <mxCell id="NZUyc3dxwzERvjgSjI8_-5" value="IMetricPtr" style="rounded=0;whiteSpace=wrap;html=1;" vertex="1" parent="1">
          <mxGeometry x="440" y="280" width="120" height="60" as="geometry" />
        </mxCell>
        <mxCell id="NZUyc3dxwzERvjgSjI8_-6" value="IMetricPtr" style="rounded=0;whiteSpace=wrap;html=1;" vertex="1" parent="1">
          <mxGeometry x="560" y="200" width="120" height="60" as="geometry" />
        </mxCell>
        <mxCell id="NZUyc3dxwzERvjgSjI8_-7" value="" style="endArrow=none;dashed=1;html=1;rounded=0;" edge="1" parent="1" source="NZUyc3dxwzERvjgSjI8_-4" target="NZUyc3dxwzERvjgSjI8_-1">
          <mxGeometry width="50" height="50" relative="1" as="geometry">
            <mxPoint x="272" y="210" as="sourcePoint" />
            <mxPoint x="376" y="137" as="targetPoint" />
          </mxGeometry>
        </mxCell>
        <mxCell id="NZUyc3dxwzERvjgSjI8_-8" value="" style="endArrow=none;dashed=1;html=1;rounded=0;" edge="1" parent="1" source="NZUyc3dxwzERvjgSjI8_-5" target="NZUyc3dxwzERvjgSjI8_-1">
          <mxGeometry width="50" height="50" relative="1" as="geometry">
            <mxPoint x="282" y="220" as="sourcePoint" />
            <mxPoint x="386" y="147" as="targetPoint" />
          </mxGeometry>
        </mxCell>
        <mxCell id="NZUyc3dxwzERvjgSjI8_-9" value="" style="endArrow=none;dashed=1;html=1;rounded=0;" edge="1" parent="1" source="NZUyc3dxwzERvjgSjI8_-6" target="NZUyc3dxwzERvjgSjI8_-1">
          <mxGeometry width="50" height="50" relative="1" as="geometry">
            <mxPoint x="292" y="230" as="sourcePoint" />
            <mxPoint x="396" y="157" as="targetPoint" />
          </mxGeometry>
        </mxCell>
      </root>
    </mxGraphModel>
  </diagram>
</mxfile>
